<?xml version="1.0" encoding="utf-8"?>
<svg xmlns="http://www.w3.org/2000/svg" xmlns:xlink="http://www.w3.org/1999/xlink" width="600" height="400" viewBox="0 0 2400 1600">
<defs>
  <clipPath id="clip820">
    <rect x="0" y="0" width="2400" height="1600"/>
  </clipPath>
</defs>
<path clip-path="url(#clip820)" d="M0 1600 L2400 1600 L2400 0 L0 0  Z" fill="#ffffff" fill-rule="evenodd" fill-opacity="1"/>
<defs>
  <clipPath id="clip821">
    <rect x="480" y="0" width="1681" height="1600"/>
  </clipPath>
</defs>
<path clip-path="url(#clip820)" d="M193.936 1486.45 L2352.76 1486.45 L2352.76 47.2441 L193.936 47.2441  Z" fill="#ffffff" fill-rule="evenodd" fill-opacity="1"/>
<defs>
  <clipPath id="clip822">
    <rect x="193" y="47" width="2160" height="1440"/>
  </clipPath>
</defs>
<polyline clip-path="url(#clip822)" style="stroke:#000000; stroke-linecap:round; stroke-linejoin:round; stroke-width:2; stroke-opacity:0.1; fill:none" points="255.035,1486.45 255.035,47.2441 "/>
<polyline clip-path="url(#clip822)" style="stroke:#000000; stroke-linecap:round; stroke-linejoin:round; stroke-width:2; stroke-opacity:0.1; fill:none" points="579.173,1486.45 579.173,47.2441 "/>
<polyline clip-path="url(#clip822)" style="stroke:#000000; stroke-linecap:round; stroke-linejoin:round; stroke-width:2; stroke-opacity:0.1; fill:none" points="903.312,1486.45 903.312,47.2441 "/>
<polyline clip-path="url(#clip822)" style="stroke:#000000; stroke-linecap:round; stroke-linejoin:round; stroke-width:2; stroke-opacity:0.1; fill:none" points="1227.45,1486.45 1227.45,47.2441 "/>
<polyline clip-path="url(#clip822)" style="stroke:#000000; stroke-linecap:round; stroke-linejoin:round; stroke-width:2; stroke-opacity:0.1; fill:none" points="1551.59,1486.45 1551.59,47.2441 "/>
<polyline clip-path="url(#clip822)" style="stroke:#000000; stroke-linecap:round; stroke-linejoin:round; stroke-width:2; stroke-opacity:0.1; fill:none" points="1875.73,1486.45 1875.73,47.2441 "/>
<polyline clip-path="url(#clip822)" style="stroke:#000000; stroke-linecap:round; stroke-linejoin:round; stroke-width:2; stroke-opacity:0.1; fill:none" points="2199.87,1486.45 2199.87,47.2441 "/>
<polyline clip-path="url(#clip820)" style="stroke:#000000; stroke-linecap:round; stroke-linejoin:round; stroke-width:4; stroke-opacity:1; fill:none" points="193.936,1486.45 2352.76,1486.45 "/>
<polyline clip-path="url(#clip820)" style="stroke:#000000; stroke-linecap:round; stroke-linejoin:round; stroke-width:4; stroke-opacity:1; fill:none" points="255.035,1486.45 255.035,1467.55 "/>
<polyline clip-path="url(#clip820)" style="stroke:#000000; stroke-linecap:round; stroke-linejoin:round; stroke-width:4; stroke-opacity:1; fill:none" points="579.173,1486.45 579.173,1467.55 "/>
<polyline clip-path="url(#clip820)" style="stroke:#000000; stroke-linecap:round; stroke-linejoin:round; stroke-width:4; stroke-opacity:1; fill:none" points="903.312,1486.45 903.312,1467.55 "/>
<polyline clip-path="url(#clip820)" style="stroke:#000000; stroke-linecap:round; stroke-linejoin:round; stroke-width:4; stroke-opacity:1; fill:none" points="1227.45,1486.45 1227.45,1467.55 "/>
<polyline clip-path="url(#clip820)" style="stroke:#000000; stroke-linecap:round; stroke-linejoin:round; stroke-width:4; stroke-opacity:1; fill:none" points="1551.59,1486.45 1551.59,1467.55 "/>
<polyline clip-path="url(#clip820)" style="stroke:#000000; stroke-linecap:round; stroke-linejoin:round; stroke-width:4; stroke-opacity:1; fill:none" points="1875.73,1486.45 1875.73,1467.55 "/>
<polyline clip-path="url(#clip820)" style="stroke:#000000; stroke-linecap:round; stroke-linejoin:round; stroke-width:4; stroke-opacity:1; fill:none" points="2199.87,1486.45 2199.87,1467.55 "/>
<path clip-path="url(#clip820)" d="M255.035 1517.37 Q251.424 1517.37 249.595 1520.93 Q247.789 1524.47 247.789 1531.6 Q247.789 1538.71 249.595 1542.27 Q251.424 1545.82 255.035 1545.82 Q258.669 1545.82 260.474 1542.27 Q262.303 1538.71 262.303 1531.6 Q262.303 1524.47 260.474 1520.93 Q258.669 1517.37 255.035 1517.37 M255.035 1513.66 Q260.845 1513.66 263.9 1518.27 Q266.979 1522.85 266.979 1531.6 Q266.979 1540.33 263.9 1544.94 Q260.845 1549.52 255.035 1549.52 Q249.225 1549.52 246.146 1544.94 Q243.09 1540.33 243.09 1531.6 Q243.09 1522.85 246.146 1518.27 Q249.225 1513.66 255.035 1513.66 Z" fill="#000000" fill-rule="nonzero" fill-opacity="1" /><path clip-path="url(#clip820)" d="M569.555 1544.91 L577.194 1544.91 L577.194 1518.55 L568.884 1520.21 L568.884 1515.95 L577.148 1514.29 L581.824 1514.29 L581.824 1544.91 L589.463 1544.91 L589.463 1548.85 L569.555 1548.85 L569.555 1544.91 Z" fill="#000000" fill-rule="nonzero" fill-opacity="1" /><path clip-path="url(#clip820)" d="M897.965 1544.91 L914.284 1544.91 L914.284 1548.85 L892.34 1548.85 L892.34 1544.91 Q895.002 1542.16 899.585 1537.53 Q904.191 1532.88 905.372 1531.53 Q907.617 1529.01 908.497 1527.27 Q909.4 1525.51 909.4 1523.82 Q909.4 1521.07 907.455 1519.33 Q905.534 1517.6 902.432 1517.6 Q900.233 1517.6 897.779 1518.36 Q895.349 1519.13 892.571 1520.68 L892.571 1515.95 Q895.395 1514.82 897.849 1514.24 Q900.303 1513.66 902.34 1513.66 Q907.71 1513.66 910.904 1516.35 Q914.099 1519.03 914.099 1523.52 Q914.099 1525.65 913.289 1527.57 Q912.502 1529.47 910.395 1532.07 Q909.816 1532.74 906.715 1535.95 Q903.613 1539.15 897.965 1544.91 Z" fill="#000000" fill-rule="nonzero" fill-opacity="1" /><path clip-path="url(#clip820)" d="M1231.7 1530.21 Q1235.05 1530.93 1236.93 1533.2 Q1238.83 1535.47 1238.83 1538.8 Q1238.83 1543.92 1235.31 1546.72 Q1231.79 1549.52 1225.31 1549.52 Q1223.13 1549.52 1220.82 1549.08 Q1218.53 1548.66 1216.07 1547.81 L1216.07 1543.29 Q1218.02 1544.43 1220.33 1545.01 Q1222.65 1545.58 1225.17 1545.58 Q1229.57 1545.58 1231.86 1543.85 Q1234.17 1542.11 1234.17 1538.8 Q1234.17 1535.75 1232.02 1534.03 Q1229.89 1532.3 1226.07 1532.3 L1222.05 1532.3 L1222.05 1528.45 L1226.26 1528.45 Q1229.71 1528.45 1231.54 1527.09 Q1233.36 1525.7 1233.36 1523.11 Q1233.36 1520.45 1231.47 1519.03 Q1229.59 1517.6 1226.07 1517.6 Q1224.15 1517.6 1221.95 1518.01 Q1219.75 1518.43 1217.11 1519.31 L1217.11 1515.14 Q1219.78 1514.4 1222.09 1514.03 Q1224.43 1513.66 1226.49 1513.66 Q1231.81 1513.66 1234.92 1516.09 Q1238.02 1518.5 1238.02 1522.62 Q1238.02 1525.49 1236.37 1527.48 Q1234.73 1529.45 1231.7 1530.21 Z" fill="#000000" fill-rule="nonzero" fill-opacity="1" /><path clip-path="url(#clip820)" d="M1554.6 1518.36 L1542.79 1536.81 L1554.6 1536.81 L1554.6 1518.36 M1553.37 1514.29 L1559.25 1514.29 L1559.25 1536.81 L1564.18 1536.81 L1564.18 1540.7 L1559.25 1540.7 L1559.25 1548.85 L1554.6 1548.85 L1554.6 1540.7 L1539 1540.7 L1539 1536.19 L1553.37 1514.29 Z" fill="#000000" fill-rule="nonzero" fill-opacity="1" /><path clip-path="url(#clip820)" d="M1866.01 1514.29 L1884.36 1514.29 L1884.36 1518.22 L1870.29 1518.22 L1870.29 1526.7 Q1871.31 1526.35 1872.32 1526.19 Q1873.34 1526 1874.36 1526 Q1880.15 1526 1883.53 1529.17 Q1886.91 1532.34 1886.91 1537.76 Q1886.91 1543.34 1883.44 1546.44 Q1879.96 1549.52 1873.64 1549.52 Q1871.47 1549.52 1869.2 1549.15 Q1866.95 1548.78 1864.55 1548.04 L1864.55 1543.34 Q1866.63 1544.47 1868.85 1545.03 Q1871.07 1545.58 1873.55 1545.58 Q1877.56 1545.58 1879.89 1543.48 Q1882.23 1541.37 1882.23 1537.76 Q1882.23 1534.15 1879.89 1532.04 Q1877.56 1529.94 1873.55 1529.94 Q1871.68 1529.94 1869.8 1530.35 Q1867.95 1530.77 1866.01 1531.65 L1866.01 1514.29 Z" fill="#000000" fill-rule="nonzero" fill-opacity="1" /><path clip-path="url(#clip820)" d="M2200.27 1529.7 Q2197.12 1529.7 2195.27 1531.86 Q2193.44 1534.01 2193.44 1537.76 Q2193.44 1541.49 2195.27 1543.66 Q2197.12 1545.82 2200.27 1545.82 Q2203.42 1545.82 2205.25 1543.66 Q2207.1 1541.49 2207.1 1537.76 Q2207.1 1534.01 2205.25 1531.86 Q2203.42 1529.7 2200.27 1529.7 M2209.55 1515.05 L2209.55 1519.31 Q2207.79 1518.48 2205.99 1518.04 Q2204.21 1517.6 2202.45 1517.6 Q2197.82 1517.6 2195.36 1520.72 Q2192.93 1523.85 2192.59 1530.17 Q2193.95 1528.15 2196.01 1527.09 Q2198.07 1526 2200.55 1526 Q2205.76 1526 2208.77 1529.17 Q2211.8 1532.32 2211.8 1537.76 Q2211.8 1543.08 2208.65 1546.3 Q2205.5 1549.52 2200.27 1549.52 Q2194.28 1549.52 2191.1 1544.94 Q2187.93 1540.33 2187.93 1531.6 Q2187.93 1523.41 2191.82 1518.55 Q2195.71 1513.66 2202.26 1513.66 Q2204.02 1513.66 2205.8 1514.01 Q2207.61 1514.36 2209.55 1515.05 Z" fill="#000000" fill-rule="nonzero" fill-opacity="1" /><polyline clip-path="url(#clip822)" style="stroke:#000000; stroke-linecap:round; stroke-linejoin:round; stroke-width:2; stroke-opacity:0.1; fill:none" points="193.936,1445.72 2352.76,1445.72 "/>
<polyline clip-path="url(#clip822)" style="stroke:#000000; stroke-linecap:round; stroke-linejoin:round; stroke-width:2; stroke-opacity:0.1; fill:none" points="193.936,1106.28 2352.76,1106.28 "/>
<polyline clip-path="url(#clip822)" style="stroke:#000000; stroke-linecap:round; stroke-linejoin:round; stroke-width:2; stroke-opacity:0.1; fill:none" points="193.936,766.847 2352.76,766.847 "/>
<polyline clip-path="url(#clip822)" style="stroke:#000000; stroke-linecap:round; stroke-linejoin:round; stroke-width:2; stroke-opacity:0.1; fill:none" points="193.936,427.412 2352.76,427.412 "/>
<polyline clip-path="url(#clip822)" style="stroke:#000000; stroke-linecap:round; stroke-linejoin:round; stroke-width:2; stroke-opacity:0.1; fill:none" points="193.936,87.9763 2352.76,87.9763 "/>
<polyline clip-path="url(#clip820)" style="stroke:#000000; stroke-linecap:round; stroke-linejoin:round; stroke-width:4; stroke-opacity:1; fill:none" points="193.936,1486.45 193.936,47.2441 "/>
<polyline clip-path="url(#clip820)" style="stroke:#000000; stroke-linecap:round; stroke-linejoin:round; stroke-width:4; stroke-opacity:1; fill:none" points="193.936,1445.72 212.834,1445.72 "/>
<polyline clip-path="url(#clip820)" style="stroke:#000000; stroke-linecap:round; stroke-linejoin:round; stroke-width:4; stroke-opacity:1; fill:none" points="193.936,1106.28 212.834,1106.28 "/>
<polyline clip-path="url(#clip820)" style="stroke:#000000; stroke-linecap:round; stroke-linejoin:round; stroke-width:4; stroke-opacity:1; fill:none" points="193.936,766.847 212.834,766.847 "/>
<polyline clip-path="url(#clip820)" style="stroke:#000000; stroke-linecap:round; stroke-linejoin:round; stroke-width:4; stroke-opacity:1; fill:none" points="193.936,427.412 212.834,427.412 "/>
<polyline clip-path="url(#clip820)" style="stroke:#000000; stroke-linecap:round; stroke-linejoin:round; stroke-width:4; stroke-opacity:1; fill:none" points="193.936,87.9763 212.834,87.9763 "/>
<path clip-path="url(#clip820)" d="M50.9921 1446.17 L80.6679 1446.17 L80.6679 1450.1 L50.9921 1450.1 L50.9921 1446.17 Z" fill="#000000" fill-rule="nonzero" fill-opacity="1" /><path clip-path="url(#clip820)" d="M91.5706 1459.06 L99.2095 1459.06 L99.2095 1432.7 L90.8993 1434.36 L90.8993 1430.1 L99.1632 1428.44 L103.839 1428.44 L103.839 1459.06 L111.478 1459.06 L111.478 1463 L91.5706 1463 L91.5706 1459.06 Z" fill="#000000" fill-rule="nonzero" fill-opacity="1" /><path clip-path="url(#clip820)" d="M120.922 1457.12 L125.807 1457.12 L125.807 1463 L120.922 1463 L120.922 1457.12 Z" fill="#000000" fill-rule="nonzero" fill-opacity="1" /><path clip-path="url(#clip820)" d="M145.992 1431.52 Q142.381 1431.52 140.552 1435.08 Q138.746 1438.62 138.746 1445.75 Q138.746 1452.86 140.552 1456.42 Q142.381 1459.96 145.992 1459.96 Q149.626 1459.96 151.431 1456.42 Q153.26 1452.86 153.26 1445.75 Q153.26 1438.62 151.431 1435.08 Q149.626 1431.52 145.992 1431.52 M145.992 1427.81 Q151.802 1427.81 154.857 1432.42 Q157.936 1437 157.936 1445.75 Q157.936 1454.48 154.857 1459.09 Q151.802 1463.67 145.992 1463.67 Q140.181 1463.67 137.103 1459.09 Q134.047 1454.48 134.047 1445.75 Q134.047 1437 137.103 1432.42 Q140.181 1427.81 145.992 1427.81 Z" fill="#000000" fill-rule="nonzero" fill-opacity="1" /><path clip-path="url(#clip820)" d="M51.9875 1106.73 L81.6633 1106.73 L81.6633 1110.67 L51.9875 1110.67 L51.9875 1106.73 Z" fill="#000000" fill-rule="nonzero" fill-opacity="1" /><path clip-path="url(#clip820)" d="M101.756 1092.08 Q98.1447 1092.08 96.316 1095.65 Q94.5104 1099.19 94.5104 1106.32 Q94.5104 1113.42 96.316 1116.99 Q98.1447 1120.53 101.756 1120.53 Q105.39 1120.53 107.196 1116.99 Q109.024 1113.42 109.024 1106.32 Q109.024 1099.19 107.196 1095.65 Q105.39 1092.08 101.756 1092.08 M101.756 1088.38 Q107.566 1088.38 110.621 1092.98 Q113.7 1097.57 113.7 1106.32 Q113.7 1115.04 110.621 1119.65 Q107.566 1124.23 101.756 1124.23 Q95.9456 1124.23 92.8669 1119.65 Q89.8114 1115.04 89.8114 1106.32 Q89.8114 1097.57 92.8669 1092.98 Q95.9456 1088.38 101.756 1088.38 Z" fill="#000000" fill-rule="nonzero" fill-opacity="1" /><path clip-path="url(#clip820)" d="M121.918 1117.68 L126.802 1117.68 L126.802 1123.56 L121.918 1123.56 L121.918 1117.68 Z" fill="#000000" fill-rule="nonzero" fill-opacity="1" /><path clip-path="url(#clip820)" d="M137.033 1089 L155.39 1089 L155.39 1092.94 L141.316 1092.94 L141.316 1101.41 Q142.334 1101.06 143.353 1100.9 Q144.371 1100.71 145.39 1100.71 Q151.177 1100.71 154.556 1103.89 Q157.936 1107.06 157.936 1112.47 Q157.936 1118.05 154.464 1121.15 Q150.992 1124.23 144.672 1124.23 Q142.496 1124.23 140.228 1123.86 Q137.982 1123.49 135.575 1122.75 L135.575 1118.05 Q137.658 1119.19 139.881 1119.74 Q142.103 1120.3 144.58 1120.3 Q148.584 1120.3 150.922 1118.19 Q153.26 1116.09 153.26 1112.47 Q153.26 1108.86 150.922 1106.76 Q148.584 1104.65 144.58 1104.65 Q142.705 1104.65 140.83 1105.07 Q138.978 1105.48 137.033 1106.36 L137.033 1089 Z" fill="#000000" fill-rule="nonzero" fill-opacity="1" /><path clip-path="url(#clip820)" d="M100.76 752.645 Q97.1493 752.645 95.3206 756.21 Q93.515 759.752 93.515 766.881 Q93.515 773.988 95.3206 777.553 Q97.1493 781.094 100.76 781.094 Q104.395 781.094 106.2 777.553 Q108.029 773.988 108.029 766.881 Q108.029 759.752 106.2 756.21 Q104.395 752.645 100.76 752.645 M100.76 748.942 Q106.571 748.942 109.626 753.548 Q112.705 758.131 112.705 766.881 Q112.705 775.608 109.626 780.215 Q106.571 784.798 100.76 784.798 Q94.9502 784.798 91.8715 780.215 Q88.816 775.608 88.816 766.881 Q88.816 758.131 91.8715 753.548 Q94.9502 748.942 100.76 748.942 Z" fill="#000000" fill-rule="nonzero" fill-opacity="1" /><path clip-path="url(#clip820)" d="M120.922 778.247 L125.807 778.247 L125.807 784.127 L120.922 784.127 L120.922 778.247 Z" fill="#000000" fill-rule="nonzero" fill-opacity="1" /><path clip-path="url(#clip820)" d="M145.992 752.645 Q142.381 752.645 140.552 756.21 Q138.746 759.752 138.746 766.881 Q138.746 773.988 140.552 777.553 Q142.381 781.094 145.992 781.094 Q149.626 781.094 151.431 777.553 Q153.26 773.988 153.26 766.881 Q153.26 759.752 151.431 756.21 Q149.626 752.645 145.992 752.645 M145.992 748.942 Q151.802 748.942 154.857 753.548 Q157.936 758.131 157.936 766.881 Q157.936 775.608 154.857 780.215 Q151.802 784.798 145.992 784.798 Q140.181 784.798 137.103 780.215 Q134.047 775.608 134.047 766.881 Q134.047 758.131 137.103 753.548 Q140.181 748.942 145.992 748.942 Z" fill="#000000" fill-rule="nonzero" fill-opacity="1" /><path clip-path="url(#clip820)" d="M101.756 413.21 Q98.1447 413.21 96.316 416.775 Q94.5104 420.317 94.5104 427.446 Q94.5104 434.553 96.316 438.117 Q98.1447 441.659 101.756 441.659 Q105.39 441.659 107.196 438.117 Q109.024 434.553 109.024 427.446 Q109.024 420.317 107.196 416.775 Q105.39 413.21 101.756 413.21 M101.756 409.507 Q107.566 409.507 110.621 414.113 Q113.7 418.696 113.7 427.446 Q113.7 436.173 110.621 440.779 Q107.566 445.363 101.756 445.363 Q95.9456 445.363 92.8669 440.779 Q89.8114 436.173 89.8114 427.446 Q89.8114 418.696 92.8669 414.113 Q95.9456 409.507 101.756 409.507 Z" fill="#000000" fill-rule="nonzero" fill-opacity="1" /><path clip-path="url(#clip820)" d="M121.918 438.812 L126.802 438.812 L126.802 444.692 L121.918 444.692 L121.918 438.812 Z" fill="#000000" fill-rule="nonzero" fill-opacity="1" /><path clip-path="url(#clip820)" d="M137.033 410.132 L155.39 410.132 L155.39 414.067 L141.316 414.067 L141.316 422.539 Q142.334 422.192 143.353 422.03 Q144.371 421.844 145.39 421.844 Q151.177 421.844 154.556 425.016 Q157.936 428.187 157.936 433.604 Q157.936 439.182 154.464 442.284 Q150.992 445.363 144.672 445.363 Q142.496 445.363 140.228 444.992 Q137.982 444.622 135.575 443.881 L135.575 439.182 Q137.658 440.317 139.881 440.872 Q142.103 441.428 144.58 441.428 Q148.584 441.428 150.922 439.321 Q153.26 437.215 153.26 433.604 Q153.26 429.993 150.922 427.886 Q148.584 425.78 144.58 425.78 Q142.705 425.78 140.83 426.196 Q138.978 426.613 137.033 427.493 L137.033 410.132 Z" fill="#000000" fill-rule="nonzero" fill-opacity="1" /><path clip-path="url(#clip820)" d="M91.5706 101.321 L99.2095 101.321 L99.2095 74.9555 L90.8993 76.6222 L90.8993 72.3629 L99.1632 70.6963 L103.839 70.6963 L103.839 101.321 L111.478 101.321 L111.478 105.256 L91.5706 105.256 L91.5706 101.321 Z" fill="#000000" fill-rule="nonzero" fill-opacity="1" /><path clip-path="url(#clip820)" d="M120.922 99.3767 L125.807 99.3767 L125.807 105.256 L120.922 105.256 L120.922 99.3767 Z" fill="#000000" fill-rule="nonzero" fill-opacity="1" /><path clip-path="url(#clip820)" d="M145.992 73.775 Q142.381 73.775 140.552 77.3398 Q138.746 80.8814 138.746 88.011 Q138.746 95.1174 140.552 98.6822 Q142.381 102.224 145.992 102.224 Q149.626 102.224 151.431 98.6822 Q153.26 95.1174 153.26 88.011 Q153.26 80.8814 151.431 77.3398 Q149.626 73.775 145.992 73.775 M145.992 70.0713 Q151.802 70.0713 154.857 74.6777 Q157.936 79.261 157.936 88.011 Q157.936 96.7378 154.857 101.344 Q151.802 105.928 145.992 105.928 Q140.181 105.928 137.103 101.344 Q134.047 96.7378 134.047 88.011 Q134.047 79.261 137.103 74.6777 Q140.181 70.0713 145.992 70.0713 Z" fill="#000000" fill-rule="nonzero" fill-opacity="1" /><polyline clip-path="url(#clip822)" style="stroke:#009af9; stroke-linecap:round; stroke-linejoin:round; stroke-width:4; stroke-opacity:1; fill:none" points="255.035,766.847 261.664,752.962 268.294,739.084 298.945,675.163 329.596,612.06 360.247,550.341 390.898,490.557 409.318,455.783 427.737,422.013 446.157,389.357 464.577,357.919 480.151,332.365 495.725,307.814 511.299,284.322 526.872,261.944 543.79,238.957 560.707,217.408 577.625,197.356 594.542,178.854 610.139,163.214 625.735,148.972 641.332,136.16 656.928,124.808 673.649,114.289 690.37,105.506 707.091,98.4821 723.812,93.2368 743.185,89.4012 762.558,87.9849 781.931,88.9928 801.304,92.4214 818.52,97.4902 835.737,104.447 852.953,113.272 870.17,123.94 885.267,134.788 900.364,147.008 915.461,160.572 930.558,175.451 947.018,193.133 963.478,212.294 979.938,232.886 996.398,254.853 1012.96,278.283 1029.51,302.988 1046.07,328.903 1062.63,355.96 1080.94,387.12 1099.24,419.491 1117.55,452.97 1135.86,487.45 1170.69,555.43 1205.53,625.85 1277.98,776.543 1338.96,903.329 1376.19,978.637 1413.41,1051.15 1430.46,1083.18 1447.51,1114.32 1464.57,1144.5 1481.62,1173.64 1497.36,1199.56 1513.11,1224.45 1528.86,1248.26 1544.61,1270.94 1560.56,1292.7 1576.51,1313.19 1592.46,1332.35 1608.42,1350.14 1626.29,1368.4 1644.17,1384.83 1662.05,1399.38 1679.93,1412.01 1696.13,1421.76 1712.33,1429.87 1728.53,1436.33 1744.73,1441.11 1763.28,1444.52 1781.83,1445.72 1800.37,1444.69 1818.92,1441.44 1836.1,1436.46 1853.27,1429.6 1870.44,1420.88 1887.62,1410.33 1904.55,1398.16 1921.48,1384.27 1938.41,1368.69 1955.34,1351.47 1971.78,1333.22 1988.22,1313.52 2004.66,1292.41 2021.1,1269.95 2037.95,1245.59 2054.8,1219.93 2071.66,1193.04 2088.51,1165.01 2106.97,1133.06 2125.44,1099.92 2143.9,1065.7 2162.36,1030.52 2216,923.857 2269.65,812.908 2280.65,789.891 2291.66,766.847 "/>
<polyline clip-path="url(#clip822)" style="stroke:#e26f46; stroke-linecap:round; stroke-linejoin:round; stroke-width:4; stroke-opacity:1; fill:none" points="255.035,87.9763 258.35,88.0118 261.664,88.1183 264.979,88.2958 268.294,88.5442 283.62,90.6144 298.945,94.1959 314.27,99.2809 329.596,105.858 344.921,113.912 360.247,123.426 375.572,134.378 390.898,146.743 409.318,163.436 427.737,182.078 446.157,202.607 464.577,224.958 480.151,245.223 495.725,266.693 511.299,289.316 526.872,313.042 543.79,340 560.707,368.121 577.625,397.327 594.542,427.539 625.735,485.607 656.928,546.276 723.812,682.498 801.304,844.407 835.737,915.479 870.17,984.874 900.364,1043.73 930.558,1100.19 947.018,1129.78 963.478,1158.43 979.938,1186.07 996.398,1212.64 1012.96,1238.2 1029.51,1262.53 1046.07,1285.57 1062.63,1307.25 1080.94,1329.58 1099.24,1350.12 1117.55,1368.8 1135.86,1385.56 1153.28,1399.67 1170.69,1411.96 1188.11,1422.38 1205.53,1430.91 1223.64,1437.75 1241.75,1442.5 1259.86,1445.13 1277.98,1445.65 1293.22,1444.44 1308.47,1441.74 1323.71,1437.54 1338.96,1431.86 1357.57,1422.93 1376.19,1411.84 1394.8,1398.62 1413.41,1383.32 1430.46,1367.51 1447.51,1350.05 1464.57,1330.97 1481.62,1310.34 1497.36,1289.94 1513.11,1268.31 1528.86,1245.49 1544.61,1221.55 1560.56,1196.2 1576.51,1169.81 1592.46,1142.45 1608.42,1114.17 1644.17,1047.85 1679.93,978.108 1712.33,912.671 1744.73,845.778 1818.92,690.73 1887.62,550.533 1921.48,484.609 1955.34,421.763 1971.78,392.569 1988.22,364.338 2004.66,337.143 2021.1,311.052 2037.95,285.523 2054.8,261.294 2071.66,238.432 2088.51,216.998 2106.97,195.222 2125.44,175.3 2143.9,157.298 2162.36,141.272 2175.77,130.902 2189.18,121.62 2202.59,113.442 2216,106.383 2242.83,95.6652 2269.65,89.5407 2275.15,88.8564 2280.65,88.3675 2286.15,88.0741 2291.66,87.9763 "/>
<path clip-path="url(#clip820)" d="M265.897 1438.47 L534.209 1438.47 L534.209 1282.95 L265.897 1282.95  Z" fill="#ffffff" fill-rule="evenodd" fill-opacity="1"/>
<polyline clip-path="url(#clip820)" style="stroke:#000000; stroke-linecap:round; stroke-linejoin:round; stroke-width:4; stroke-opacity:1; fill:none" points="265.897,1438.47 534.209,1438.47 534.209,1282.95 265.897,1282.95 265.897,1438.47 "/>
<polyline clip-path="url(#clip820)" style="stroke:#009af9; stroke-linecap:round; stroke-linejoin:round; stroke-width:4; stroke-opacity:1; fill:none" points="289.884,1334.79 433.805,1334.79 "/>
<path clip-path="url(#clip820)" d="M471.634 1354.48 Q469.829 1359.11 468.116 1360.52 Q466.403 1361.94 463.532 1361.94 L460.13 1361.94 L460.13 1358.37 L462.63 1358.37 Q464.389 1358.37 465.361 1357.54 Q466.333 1356.7 467.514 1353.6 L468.278 1351.66 L457.792 1326.15 L462.306 1326.15 L470.407 1346.43 L478.509 1326.15 L483.023 1326.15 L471.634 1354.48 Z" fill="#000000" fill-rule="nonzero" fill-opacity="1" /><path clip-path="url(#clip820)" d="M490.315 1348.14 L497.954 1348.14 L497.954 1321.77 L489.643 1323.44 L489.643 1319.18 L497.907 1317.51 L502.583 1317.51 L502.583 1348.14 L510.222 1348.14 L510.222 1352.07 L490.315 1352.07 L490.315 1348.14 Z" fill="#000000" fill-rule="nonzero" fill-opacity="1" /><polyline clip-path="url(#clip820)" style="stroke:#e26f46; stroke-linecap:round; stroke-linejoin:round; stroke-width:4; stroke-opacity:1; fill:none" points="289.884,1386.63 433.805,1386.63 "/>
<path clip-path="url(#clip820)" d="M471.634 1406.32 Q469.829 1410.95 468.116 1412.36 Q466.403 1413.78 463.532 1413.78 L460.13 1413.78 L460.13 1410.21 L462.63 1410.21 Q464.389 1410.21 465.361 1409.38 Q466.333 1408.54 467.514 1405.44 L468.278 1403.5 L457.792 1377.99 L462.306 1377.99 L470.407 1398.27 L478.509 1377.99 L483.023 1377.99 L471.634 1406.32 Z" fill="#000000" fill-rule="nonzero" fill-opacity="1" /><path clip-path="url(#clip820)" d="M493.532 1399.98 L509.852 1399.98 L509.852 1403.91 L487.907 1403.91 L487.907 1399.98 Q490.569 1397.22 495.153 1392.6 Q499.759 1387.94 500.94 1386.6 Q503.185 1384.08 504.065 1382.34 Q504.967 1380.58 504.967 1378.89 Q504.967 1376.14 503.023 1374.4 Q501.102 1372.66 498 1372.66 Q495.801 1372.66 493.347 1373.43 Q490.917 1374.19 488.139 1375.74 L488.139 1371.02 Q490.963 1369.89 493.417 1369.31 Q495.87 1368.73 497.907 1368.73 Q503.278 1368.73 506.472 1371.41 Q509.666 1374.1 509.666 1378.59 Q509.666 1380.72 508.856 1382.64 Q508.069 1384.54 505.963 1387.13 Q505.384 1387.8 502.282 1391.02 Q499.18 1394.22 493.532 1399.98 Z" fill="#000000" fill-rule="nonzero" fill-opacity="1" /></svg>
